<svg width="84" height="16" viewBox="0 0 84 16" fill="none" xmlns="http://www.w3.org/2000/svg">
<path d="M27.0653 4.43989C26.229 4.44176 25.4121 4.67936 24.7178 5.12263C24.0235 5.5659 23.4831 6.19494 23.1648 6.9302C22.8466 7.66547 22.7649 8.47393 22.93 9.25336C23.095 10.0328 23.4995 10.7482 24.0923 11.3091C24.685 11.8699 25.4394 12.2511 26.2601 12.4044C27.0807 12.5577 27.9307 12.4762 28.7026 12.1702C29.4745 11.8642 30.1337 11.3475 30.5967 10.6854C31.0597 10.0233 31.3058 9.2455 31.3038 8.45042C31.3119 7.92003 31.2076 7.39351 30.9973 6.90221C30.7869 6.41092 30.4746 5.96489 30.0792 5.59069C29.6837 5.21648 29.2131 4.92175 28.6953 4.72405C28.1775 4.52635 27.6232 4.42971 27.0653 4.43989ZM27.0653 10.8851C26.5527 10.9191 26.0412 10.8058 25.5972 10.5599C25.1533 10.3139 24.7974 9.94664 24.5759 9.50584C24.3544 9.06505 24.2775 8.5711 24.3552 8.0882C24.4329 7.60531 24.6616 7.1558 25.0116 6.79812C25.3616 6.44044 25.8167 6.19112 26.3177 6.08258C26.8187 5.97404 27.3425 6.0113 27.8209 6.18951C28.2994 6.36772 28.7103 6.67864 29.0005 7.08185C29.2906 7.48506 29.4464 7.96191 29.4476 8.45042C29.4636 8.75996 29.4142 9.0694 29.3024 9.3605C29.1906 9.65161 29.0186 9.91849 28.7966 10.1454C28.5746 10.3723 28.307 10.5547 28.0097 10.6817C27.7123 10.8087 27.3912 10.8779 27.0653 10.8851ZM17.8142 4.43989C16.9779 4.44176 16.1609 4.67936 15.4666 5.12263C14.7724 5.5659 14.2319 6.19494 13.9137 6.9302C13.5955 7.66547 13.5137 8.47393 13.6788 9.25336C13.8439 10.0328 14.2484 10.7482 14.8412 11.3091C15.4339 11.8699 16.1883 12.2511 17.0089 12.4044C17.8296 12.5577 18.6796 12.4762 19.4515 12.1702C20.2234 11.8642 20.8825 11.3475 21.3455 10.6854C21.8085 10.0233 22.0546 9.2455 22.0527 8.45042C22.0607 7.92003 21.9565 7.39351 21.7461 6.90221C21.5357 6.41092 21.2235 5.96489 20.828 5.59069C20.4326 5.21648 19.9619 4.92175 19.4442 4.72405C18.9264 4.52635 18.3721 4.42971 17.8142 4.43989ZM17.8142 10.8851C17.3016 10.9191 16.7901 10.8058 16.3461 10.5599C15.9021 10.3139 15.5463 9.94664 15.3248 9.50584C15.1033 9.06505 15.0264 8.5711 15.1041 8.0882C15.1818 7.60531 15.4105 7.1558 15.7605 6.79812C16.1105 6.44044 16.5655 6.19112 17.0665 6.08258C17.5676 5.97404 18.0913 6.0113 18.5698 6.18951C19.0482 6.36772 19.4592 6.67864 19.7493 7.08185C20.0394 7.48506 20.1952 7.96191 20.1965 8.45042C20.2125 8.75996 20.1631 9.0694 20.0513 9.3605C19.9395 9.65161 19.7675 9.91849 19.5455 10.1454C19.3234 10.3723 19.0559 10.5547 18.7585 10.6817C18.4612 10.8087 18.1401 10.8779 17.8142 10.8851ZM6.81607 5.67608V7.37466H11.1042C11.0369 8.17469 10.6871 8.92961 10.1115 9.51676C9.6814 9.93339 9.16405 10.2595 8.59296 10.4741C8.02186 10.6887 7.40975 10.7869 6.79622 10.7624C5.53259 10.7624 4.32071 10.2852 3.42718 9.43571C2.53366 8.58625 2.03168 7.43415 2.03168 6.23284C2.03168 5.03153 2.53366 3.87942 3.42718 3.02997C4.32071 2.18052 5.53259 1.7033 6.79622 1.7033C8.00765 1.68617 9.17739 2.12353 10.052 2.92061L11.3126 1.72217C10.721 1.16589 10.0186 0.727455 9.24644 0.432546C8.47433 0.137637 7.64807 -0.00781273 6.81607 0.00471849C5.93364 -0.0279299 5.05335 0.109113 4.22796 0.407632C3.40257 0.706151 2.64906 1.16 2.01258 1.742C1.37611 2.32399 0.869767 3.02214 0.5239 3.79462C0.178033 4.5671 -0.000244141 5.39801 -0.000244141 6.23755C-0.000244141 7.0771 0.178033 7.90801 0.5239 8.68049C0.869767 9.45297 1.37611 10.1511 2.01258 10.7331C2.64906 11.3151 3.40257 11.769 4.22796 12.0675C5.05335 12.366 5.93364 12.503 6.81607 12.4704C7.66517 12.5026 8.51184 12.3638 9.30048 12.0629C10.0891 11.762 10.8019 11.3059 11.392 10.7246C12.4344 9.63604 12.9898 8.2043 12.9405 6.73297C12.944 6.37884 12.9141 6.02513 12.8512 5.67608H6.81607ZM51.7913 6.9972C51.5324 6.27317 51.0484 5.64096 50.4031 5.18429C49.7579 4.72763 48.982 4.46804 48.1782 4.43989C47.6352 4.43888 47.0978 4.54376 46.5992 4.74803C46.1006 4.9523 45.6513 5.25163 45.2792 5.62751C44.907 6.0034 44.6199 6.44785 44.4357 6.93339C44.2514 7.41893 44.1738 7.93525 44.2078 8.45042C44.1993 9.31184 44.4841 10.1528 45.0198 10.8476C45.5555 11.5424 46.3133 12.0538 47.1799 12.3054C48.0465 12.557 48.9755 12.5353 49.8281 12.2436C50.6807 11.9519 51.4112 11.4058 51.9104 10.6869L50.4711 9.74323C50.2566 10.0832 49.9523 10.364 49.5883 10.5576C49.2244 10.7513 48.8136 10.8512 48.3966 10.8473C47.9663 10.8642 47.5408 10.757 47.1759 10.5397C46.8109 10.3224 46.5237 10.0053 46.3518 9.62999L51.9998 7.41241L51.7913 6.9972ZM46.0342 8.33719C46.014 8.04407 46.0556 7.75008 46.1565 7.47244C46.2574 7.19479 46.4156 6.93907 46.6217 6.72026C46.8278 6.50144 47.0778 6.32392 47.357 6.1981C47.6362 6.07227 47.939 6.00067 48.2477 5.98749C48.5675 5.96893 48.886 6.04051 49.1632 6.19327C49.4404 6.34602 49.6641 6.57316 49.8061 6.84621L46.0342 8.33719ZM41.4483 12.225H43.3045V0.429364H41.4483V12.225ZM38.4109 5.33637H38.3414C38.0641 5.03615 37.7219 4.79641 37.3382 4.63354C36.9544 4.47068 36.5382 4.38853 36.118 4.39271C35.0332 4.44272 34.0103 4.88758 33.2612 5.63511C32.5121 6.38264 32.0943 7.37551 32.0943 8.40796C32.0943 9.44041 32.5121 10.4333 33.2612 11.1808C34.0103 11.9283 35.0332 12.3732 36.118 12.4232C36.5388 12.4312 36.9563 12.3508 37.3407 12.1877C37.725 12.0246 38.0667 11.7828 38.3414 11.4796H38.4109V12.0552C38.4109 13.5933 37.5473 14.4143 36.1577 14.4143C35.6935 14.4046 35.2427 14.264 34.8628 14.0103C34.4828 13.7566 34.1907 13.4012 34.0236 12.9894L32.4155 13.6216C32.7128 14.3315 33.2297 14.9389 33.8979 15.3635C34.5661 15.7881 35.354 16.0099 36.1577 15.9997C38.3315 15.9997 40.1281 14.7823 40.1281 11.8193V4.67581H38.4109V5.33637ZM36.2768 10.8851C35.6264 10.8465 35.016 10.5737 34.5698 10.1223C34.1236 9.6708 33.8752 9.07462 33.8752 8.45514C33.8752 7.83567 34.1236 7.23949 34.5698 6.78803C35.016 6.33657 35.6264 6.06378 36.2768 6.02523C36.5947 6.03827 36.9065 6.11197 37.1938 6.24193C37.4811 6.37189 37.738 6.55547 37.9491 6.78174C38.1603 7.008 38.3214 7.27234 38.4229 7.55901C38.5244 7.84568 38.5642 8.14883 38.5399 8.45042C38.567 8.75305 38.5293 9.05775 38.4289 9.3461C38.3286 9.63445 38.1678 9.90046 37.9563 10.128C37.7447 10.3556 37.4868 10.5401 37.1981 10.6702C36.9095 10.8003 36.596 10.8734 36.2768 10.8851Z" fill="white"/>
<path d="M60.4027 0.00981621H55.9998V12.2798H57.8376V7.62699H60.4027C60.9265 7.66458 61.4524 7.59398 61.9477 7.41961C62.4429 7.24524 62.8969 6.97083 63.2813 6.61349C63.6657 6.25615 63.9723 5.82355 64.1819 5.34266C64.3916 4.86177 64.4997 4.3429 64.4997 3.8184C64.4997 3.29391 64.3916 2.77504 64.1819 2.29415C63.9723 1.81326 63.6657 1.38066 63.2813 1.02332C62.8969 0.665982 62.4429 0.391573 61.9477 0.217201C61.4524 0.0428285 60.9265 -0.0277676 60.4027 0.00981621ZM60.4027 5.89939H57.8376V1.71779H60.442C60.7182 1.71779 60.9917 1.77212 61.2469 1.87769C61.502 1.98326 61.7339 2.13799 61.9292 2.33305C62.1245 2.52811 62.2794 2.75968 62.3851 3.01454C62.4908 3.26939 62.5452 3.54255 62.5452 3.8184C62.5452 4.09426 62.4908 4.36742 62.3851 4.62228C62.2794 4.87713 62.1245 5.1087 61.9292 5.30376C61.7339 5.49882 61.502 5.65355 61.2469 5.75912C60.9917 5.86468 60.7182 5.91902 60.442 5.91902L60.4027 5.89939ZM71.7442 4.14233C71.0749 4.10111 70.4082 4.25674 69.8266 4.58995C69.2449 4.92317 68.7738 5.41937 68.4715 6.01718L70.0931 6.69448C70.257 6.39941 70.5029 6.15805 70.8011 5.99954C71.0993 5.84102 71.4371 5.77215 71.7737 5.80123C72.007 5.77401 72.2434 5.79347 72.4691 5.85848C72.6948 5.92348 72.9053 6.03273 73.0882 6.17984C73.2712 6.32695 73.423 6.50898 73.5348 6.71531C73.6466 6.92164 73.7161 7.14814 73.7393 7.38159V7.49939C73.1483 7.18912 72.4905 7.0274 71.8228 7.02822C70.0735 7.02822 68.2848 8.00982 68.2848 9.79632C68.3021 10.176 68.3956 10.5484 68.5598 10.8913C68.724 11.2343 68.9556 11.5407 69.2407 11.7925C69.5258 12.0443 69.8586 12.2363 70.2195 12.3571C70.5803 12.4779 70.9618 12.525 71.3413 12.4957C71.8025 12.5212 72.2621 12.4237 72.6732 12.2133C73.0842 12.0028 73.4318 11.687 73.6803 11.2982H73.7393V12.2798H75.5084V7.55828C75.5084 5.40859 73.8769 4.16196 71.7835 4.16196L71.7442 4.14233ZM71.5182 10.8663C70.9187 10.8663 70.0833 10.562 70.0833 9.82577C70.0833 8.84417 71.1251 8.51043 72.0489 8.51043C72.6327 8.49604 73.2097 8.63842 73.7197 8.9227C73.6579 9.45578 73.4049 9.94844 73.0073 10.3094C72.6098 10.6704 72.0947 10.8752 71.5575 10.8859L71.5182 10.8663ZM81.9555 4.42699L79.8523 9.74724H79.7934L77.6116 4.42699H75.6459L78.9187 11.8675L77.0513 16H78.9678L83.9998 4.42699H81.9555ZM65.4445 12.2798H67.2725V0.00981621H65.4445V12.2798Z" fill="white"/>
</svg>
