<svg width="23" height="26" viewBox="0 0 23 26" fill="none" xmlns="http://www.w3.org/2000/svg">
<path d="M10.7416 12.3951L0.0957031 23.8007C0.215255 24.2339 0.430094 24.6335 0.723796 24.9688C1.0175 25.3041 1.38229 25.5664 1.79028 25.7354C2.19827 25.9045 2.63867 25.9759 3.0778 25.9443C3.51693 25.9126 3.94316 25.7787 4.32393 25.5528L16.3025 18.5765L10.7416 12.3951Z" fill="#EA4335"/>
<path d="M21.5057 10.4564L16.3258 7.42236L10.4951 12.6545L16.3495 18.5601L21.49 15.5586C21.9454 15.3148 22.3268 14.9481 22.593 14.4984C22.8591 14.0487 22.9998 13.5331 22.9998 13.0074C22.9998 12.4818 22.8591 11.9662 22.593 11.5165C22.3268 11.0668 21.9454 10.7001 21.49 10.4563L21.5057 10.4564Z" fill="#FBBC04"/>
<path d="M0.0952622 2.15784C0.0309514 2.40111 -0.00108034 2.65212 2.77945e-05 2.90412V23.0543C0.000662817 23.3062 0.032665 23.557 0.0952622 23.8007L11.1061 12.6872L0.0952622 2.15784Z" fill="#4285F4"/>
<path d="M10.8209 12.9792L16.3263 7.4225L4.36364 0.413709C3.91355 0.144173 3.40164 0.00142639 2.88005 5.63459e-06C1.58567 -0.0025668 0.447711 0.875921 0.0957031 2.14974L10.8209 12.9792Z" fill="#34A853"/>
</svg>
