<svg width="18" height="21" viewBox="0 0 18 21" fill="none" xmlns="http://www.w3.org/2000/svg">
<path d="M14.7433 20.16C13.5999 21.2683 12.3516 21.0933 11.1499 20.5683C9.87826 20.0317 8.71159 20.0083 7.36992 20.5683C5.68992 21.2917 4.80326 21.0817 3.79992 20.16C-1.89341 14.2917 -1.05341 5.355 5.40992 5.02833C6.98492 5.11 8.08159 5.89167 9.00326 5.96167C10.3799 5.68167 11.6983 4.87667 13.1683 4.98167C14.9299 5.12167 16.2599 5.82167 17.1349 7.08167C13.4949 9.26333 14.3583 14.0583 17.6949 15.4C17.0299 17.15 16.1666 18.8883 14.7316 20.1717L14.7433 20.16ZM8.88659 4.95833C8.71159 2.35667 10.8233 0.21 13.2499 0C13.5883 3.01 10.5199 5.25 8.88659 4.95833Z" fill="white"/>
</svg>
