<svg width="100" height="100" viewBox="0 0 100 100" fill="none" xmlns="http://www.w3.org/2000/svg">
<g filter="url(#filter0_d_144_731)">
<path d="M49.9887 35.994C42.2766 35.994 35.983 42.2878 35.983 50C35.983 57.7122 42.2766 64.006 49.9887 64.006C57.7008 64.006 63.9944 57.7122 63.9944 50C63.9944 42.2878 57.7008 35.994 49.9887 35.994ZM91.9953 50C91.9953 44.2001 92.0479 38.4527 91.7221 32.6633C91.3964 25.9387 89.8624 19.9707 84.9452 15.0534C80.0174 10.1256 74.06 8.60203 67.3356 8.27631C61.5358 7.95059 55.7885 8.00313 49.9992 8.00313C44.1994 8.00313 38.4521 7.95059 32.6628 8.27631C25.9384 8.60203 19.9705 10.1361 15.0533 15.0534C10.1255 19.9812 8.60202 25.9387 8.2763 32.6633C7.95059 38.4632 8.00313 44.2106 8.00313 50C8.00313 55.7894 7.95059 61.5473 8.2763 67.3367C8.60202 74.0613 10.136 80.0293 15.0533 84.9466C19.981 89.8744 25.9384 91.398 32.6628 91.7237C38.4626 92.0494 44.2099 91.9969 49.9992 91.9969C55.799 91.9969 61.5463 92.0494 67.3356 91.7237C74.06 91.398 80.028 89.8639 84.9452 84.9466C89.8729 80.0188 91.3964 74.0613 91.7221 67.3367C92.0584 61.5473 91.9953 55.7999 91.9953 50ZM49.9887 71.5501C38.0634 71.5501 28.4391 61.9256 28.4391 50C28.4391 38.0744 38.0634 28.4499 49.9887 28.4499C61.914 28.4499 71.5384 38.0744 71.5384 50C71.5384 61.9256 61.914 71.5501 49.9887 71.5501ZM72.421 32.6002C69.6366 32.6002 67.3881 30.3517 67.3881 27.5673C67.3881 24.783 69.6366 22.5344 72.421 22.5344C75.2053 22.5344 77.4538 24.783 77.4538 27.5673C77.4546 28.2285 77.325 28.8833 77.0723 29.4943C76.8197 30.1053 76.449 30.6605 75.9815 31.128C75.514 31.5955 74.9589 31.9662 74.3479 32.2188C73.7369 32.4715 73.0821 32.6011 72.421 32.6002Z" fill="white"/>
</g>
<defs>
<filter id="filter0_d_144_731" x="0" y="0" width="100" height="100" filterUnits="userSpaceOnUse" color-interpolation-filters="sRGB">
<feFlood flood-opacity="0" result="BackgroundImageFix"/>
<feColorMatrix in="SourceAlpha" type="matrix" values="0 0 0 0 0 0 0 0 0 0 0 0 0 0 0 0 0 0 127 0" result="hardAlpha"/>
<feOffset/>
<feGaussianBlur stdDeviation="4"/>
<feComposite in2="hardAlpha" operator="out"/>
<feColorMatrix type="matrix" values="0 0 0 0 0 0 0 0 0 0 0 0 0 0 0 0 0 0 0.25 0"/>
<feBlend mode="normal" in2="BackgroundImageFix" result="effect1_dropShadow_144_731"/>
<feBlend mode="normal" in="SourceGraphic" in2="effect1_dropShadow_144_731" result="shape"/>
</filter>
</defs>
</svg>
