<svg width="100" height="100" viewBox="0 0 100 100" fill="none" xmlns="http://www.w3.org/2000/svg">
<g filter="url(#filter0_d_144_733)">
<path d="M91.3333 24.9192C88.2688 26.2209 84.9339 27.1578 81.4988 27.5227C85.0652 25.4363 87.7359 22.1401 89.0099 18.2525C85.6633 20.213 81.9971 21.5877 78.1739 22.3156C76.5759 20.6334 74.6433 19.2933 72.4965 18.3788C70.3496 17.4643 68.0345 16.995 65.6954 17C56.2314 17 48.6201 24.5543 48.6201 33.8245C48.6201 35.1263 48.7804 36.428 49.0407 37.6805C34.8698 36.9507 22.2311 30.2841 13.8286 20.077C12.2975 22.652 11.4952 25.5841 11.5052 28.5681C11.5052 34.4063 14.5196 39.5543 19.1165 42.5819C16.4075 42.4768 13.762 41.7436 11.395 40.4418V40.6489C11.395 48.8245 17.2637 55.5996 25.0853 57.1578C23.6167 57.5335 22.1059 57.7256 20.5886 57.7298C19.477 57.7298 18.4254 57.6213 17.3639 57.4734C19.5271 64.14 25.8264 68.9823 33.3275 69.14C27.4588 73.6667 20.1079 76.3294 12.1261 76.3294C10.694 76.3294 9.37203 76.2801 8 76.1223C15.5712 80.9053 24.5545 83.6667 34.2288 83.6667C65.6353 83.6667 82.8207 58.0454 82.8207 35.8067C82.8207 35.077 82.8207 34.3472 82.7707 33.6174C86.0956 31.2209 89.0099 28.2525 91.3333 24.9192Z" fill="white"/>
</g>
<defs>
<filter id="filter0_d_144_733" x="0" y="9" width="99.3335" height="82.6667" filterUnits="userSpaceOnUse" color-interpolation-filters="sRGB">
<feFlood flood-opacity="0" result="BackgroundImageFix"/>
<feColorMatrix in="SourceAlpha" type="matrix" values="0 0 0 0 0 0 0 0 0 0 0 0 0 0 0 0 0 0 127 0" result="hardAlpha"/>
<feOffset/>
<feGaussianBlur stdDeviation="4"/>
<feComposite in2="hardAlpha" operator="out"/>
<feColorMatrix type="matrix" values="0 0 0 0 0 0 0 0 0 0 0 0 0 0 0 0 0 0 0.25 0"/>
<feBlend mode="normal" in2="BackgroundImageFix" result="effect1_dropShadow_144_733"/>
<feBlend mode="normal" in="SourceGraphic" in2="effect1_dropShadow_144_733" result="shape"/>
</filter>
</defs>
</svg>
