<svg width="48" height="48" viewBox="0 0 48 48" fill="none" xmlns="http://www.w3.org/2000/svg">
<path d="M49.0213 44.8V48.8851H0V44.8H49.0213Z" fill="#4285F4"/>
<path fill-rule="evenodd" clip-rule="evenodd" d="M35.9489 6.28478H13.0723V0H9.80426V6.28478H4.90213C3.602 6.28478 2.35513 6.78139 1.4358 7.66536C0.516473 8.54933 0 9.74825 0 10.9984L0 36.1375C0 37.3876 0.516473 38.5865 1.4358 39.4705C2.35513 40.3545 3.602 40.8511 4.90213 40.8511H44.1192C45.4193 40.8511 46.6662 40.3545 47.5855 39.4705C48.5048 38.5865 49.0213 37.3876 49.0213 36.1375V10.9984C49.0213 9.74825 48.5048 8.54933 47.5855 7.66536C46.6662 6.78139 45.4193 6.28478 44.1192 6.28478H39.217V0H35.9489V6.28478ZM9.80426 18.8543C9.80426 17.1875 10.4929 15.589 11.7187 14.4103C12.9444 13.2317 14.6069 12.5696 16.3404 12.5696C18.0739 12.5696 19.7364 13.2317 20.9622 14.4103C22.188 15.589 22.8766 17.1875 22.8766 18.8543C22.8766 20.5212 22.188 22.1197 20.9622 23.2984C19.7364 24.477 18.0739 25.1391 16.3404 25.1391C14.6069 25.1391 12.9444 24.477 11.7187 23.2984C10.4929 22.1197 9.80426 20.5212 9.80426 18.8543ZM7.78458 33.3659C8.57903 31.8381 9.80025 30.5532 11.3114 29.6551C12.8226 28.7571 14.5639 28.2814 16.3404 28.2814C18.1169 28.2814 19.8583 28.7571 21.3694 29.6551C22.8806 30.5532 24.1018 31.8381 24.8963 33.3659L25.9747 35.4336C26.0997 35.6734 26.1587 35.9399 26.1463 36.2079C26.1338 36.4758 26.0502 36.7362 25.9034 36.9643C25.7566 37.1923 25.5516 37.3805 25.3078 37.5108C25.064 37.6411 24.7896 37.7092 24.5106 37.7087H8.17021C7.89156 37.7087 7.61754 37.6402 7.3742 37.5096C7.13085 37.3791 6.92626 37.1909 6.77988 36.9629C6.63349 36.7349 6.55017 36.4747 6.53783 36.2071C6.52549 35.9394 6.58454 35.6731 6.70938 35.4336L7.78458 33.3659ZM29.4128 18.8543H39.217V15.712H29.4128V18.8543ZM29.4128 28.2815H39.217V25.1391H29.4128V28.2815Z" fill="#4285F4"/>
</svg>
