<svg width="56" height="56" viewBox="0 0 56 56" fill="none" xmlns="http://www.w3.org/2000/svg">
<path d="M42.5538 8.08648C38.0295 10.1955 33.0718 11.3312 28.0332 11.4126C22.8959 11.3214 17.8428 10.1563 13.2327 8C4.09474 8.08648 0 11.978 0 20.8588V40.8156C0.0275986 42.7301 0.847276 44.5574 2.28167 45.9019C3.71607 47.2465 5.64982 48.0002 7.66452 48H8.47647C10.0776 48.0004 11.6387 47.5242 12.9405 46.6384C14.2423 45.7525 15.2196 44.5014 15.735 43.0607C16.8024 40.0173 19.7423 34.6955 23.0321 34.6955H32.9714C36.2612 34.6955 39.201 40.0173 40.251 43.0108C40.7582 44.463 41.7338 45.7264 43.0392 46.622C44.3446 47.5175 45.9136 47.9997 47.5235 48H48.3355C52.5702 48 56 44.7404 56 40.7158V20.759C56 11.978 51.9052 8.08648 42.5608 8.08648H42.5538ZM17.4954 24.7171H13.9956V28.0432H10.4958V24.7171H6.99606V21.391H10.4958V18.0649H13.9956V21.391H17.4954V24.7171ZM35.2043 28.4091C34.7169 28.4089 34.2343 28.3174 33.7841 28.14C33.3339 27.9625 32.9249 27.7025 32.5804 27.3748C32.2359 27.0471 31.9627 26.6581 31.7764 26.2301C31.5901 25.802 31.4943 25.3433 31.4945 24.8801C31.4948 24.4169 31.591 23.9582 31.7777 23.5304C31.9645 23.1025 32.238 22.7138 32.5828 22.3864C32.9277 22.059 33.3369 21.7993 33.7873 21.6223C34.2377 21.4452 34.7204 21.3542 35.2078 21.3544C36.1921 21.3548 37.136 21.7269 37.8317 22.3887C38.5274 23.0505 38.918 23.9479 38.9176 24.8834C38.9171 25.8189 38.5256 26.716 37.8292 27.3772C37.1329 28.0383 36.1887 28.4096 35.2043 28.4091ZM45.4937 28.0432C44.5655 28.0432 43.6753 27.6928 43.0189 27.069C42.3626 26.4453 41.9939 25.5993 41.9939 24.7171C41.9939 23.835 42.3626 22.989 43.0189 22.3652C43.6753 21.7414 44.5655 21.391 45.4937 21.391C46.4219 21.391 47.312 21.7414 47.9684 22.3652C48.6247 22.989 48.9934 23.835 48.9934 24.7171C48.9934 25.5993 48.6247 26.4453 47.9684 27.069C47.312 27.6928 46.4219 28.0432 45.4937 28.0432Z" fill="#4285F4"/>
</svg>
