<svg width="56" height="56" viewBox="0 0 56 56" fill="none" xmlns="http://www.w3.org/2000/svg">
<path d="M51.0066 27.6395L29.1976 6.48187C29.0406 6.32911 28.8541 6.20793 28.6487 6.12524C28.4434 6.04256 28.2233 6 28.001 6C27.7787 6 27.5586 6.04256 27.3533 6.12524C27.1479 6.20793 26.9614 6.32911 26.8044 6.48187L4.99541 27.6395C4.36004 28.2564 4 29.0942 4 29.9681C4 31.7826 5.51959 33.2579 7.38862 33.2579H9.68654V48.3551C9.68654 49.2649 10.4437 50 11.3808 50H24.6124V38.4856H30.5425V50H44.6211C45.5583 50 46.3155 49.2649 46.3155 48.3551V33.2579H48.6134C49.5135 33.2579 50.3765 32.9135 51.0119 32.2915C52.3303 31.0064 52.3303 28.9246 51.0066 27.6395Z" fill="#4285F4"/>
</svg>
