<svg width="22" height="22" viewBox="0 0 22 22" fill="none" xmlns="http://www.w3.org/2000/svg">
<path d="M9.66814 16.9188C10.6203 16.9188 11.5632 16.7312 12.4428 16.3668C13.3225 16.0025 14.1218 15.4684 14.7951 14.7951C15.4684 14.1218 16.0025 13.3225 16.3669 12.4428C16.7312 11.5631 16.9188 10.6203 16.9188 9.66813C16.9188 8.71596 16.7312 7.77312 16.3669 6.89343C16.0025 6.01374 15.4684 5.21444 14.7951 4.54115C14.1218 3.86787 13.3225 3.33379 12.4428 2.96941C11.5632 2.60503 10.6203 2.41749 9.66814 2.41749C7.74515 2.41749 5.90092 3.18139 4.54116 4.54115C3.1814 5.90091 2.41749 7.74514 2.41749 9.66813C2.41749 11.5911 3.1814 13.4353 4.54116 14.7951C5.90092 16.1549 7.74515 16.9188 9.66814 16.9188V16.9188ZM17.3055 15.5967L21.6317 19.9229C21.747 20.0345 21.839 20.1679 21.9022 20.3154C21.9655 20.4629 21.9987 20.6215 22 20.7819C22.0012 20.9424 21.9706 21.1015 21.9097 21.2499C21.8488 21.3984 21.759 21.5333 21.6455 21.6467C21.5319 21.76 21.3969 21.8497 21.2484 21.9103C21.0998 21.971 20.9407 22.0015 20.7802 21.9999C20.6198 21.9984 20.4612 21.965 20.3138 21.9016C20.1664 21.8381 20.0332 21.746 19.9218 21.6305L15.5955 17.3043C13.6529 18.8122 11.2087 19.5232 8.7603 19.2924C6.31195 19.0616 4.04357 17.9064 2.41695 16.0621C0.79032 14.2177 -0.0722793 11.8227 0.00474799 9.36472C0.0817753 6.90672 1.09264 4.57047 2.83156 2.83156C4.57048 1.09264 6.90673 0.0817752 9.36473 0.00474798C11.8227 -0.0722793 14.2177 0.79032 16.0621 2.41695C17.9065 4.04357 19.0616 6.31194 19.2924 8.76029C19.5232 11.2086 18.8122 13.6529 17.3043 15.5955L17.3055 15.5967Z" fill="#4285F4"/>
</svg>
