<svg width="24" height="24" viewBox="0 0 24 24" fill="none" xmlns="http://www.w3.org/2000/svg">
<path d="M21.2 2H2.8C2.3575 2 2 2.3575 2 2.8V21.2C2 21.6425 2.3575 22 2.8 22H21.2C21.6425 22 22 21.6425 22 21.2V2.8C22 2.3575 21.6425 2 21.2 2ZM18.89 7.8375H17.2925C16.04 7.8375 15.7975 8.4325 15.7975 9.3075V11.235H18.7875L18.3975 14.2525H15.7975V22H12.68V14.255H10.0725V11.235H12.68V9.01C12.68 6.4275 14.2575 5.02 16.5625 5.02C17.6675 5.02 18.615 5.1025 18.8925 5.14V7.8375H18.89Z" fill="#E5E5E5"/>
</svg>
