<svg width="24" height="24" viewBox="0 0 24 24" fill="none" xmlns="http://www.w3.org/2000/svg">
<path d="M11.8508 8.51583C10.0146 8.51583 8.51614 10.0143 8.51614 11.8506C8.51614 13.6868 10.0146 15.1853 11.8508 15.1853C13.687 15.1853 15.1855 13.6868 15.1855 11.8506C15.1855 10.0143 13.687 8.51583 11.8508 8.51583ZM21.8524 11.8506C21.8524 10.4697 21.8649 9.10123 21.7874 7.7228C21.7098 6.12172 21.3446 4.70076 20.1738 3.52996C19.0005 2.35667 17.5821 1.99393 15.981 1.91637C14.6001 1.83882 13.2317 1.85133 11.8533 1.85133C10.4724 1.85133 9.10402 1.83882 7.72562 1.91637C6.12457 1.99393 4.70363 2.35917 3.53286 3.52996C2.35959 4.70326 1.99685 6.12172 1.9193 7.7228C1.84175 9.10373 1.85426 10.4722 1.85426 11.8506C1.85426 13.229 1.84175 14.5999 1.9193 15.9784C1.99685 17.5795 2.36209 19.0004 3.53286 20.1712C4.70613 21.3445 6.12457 21.7072 7.72562 21.7848C9.10652 21.8623 10.4749 21.8498 11.8533 21.8498C13.2342 21.8498 14.6026 21.8623 15.981 21.7848C17.5821 21.7072 19.003 21.342 20.1738 20.1712C21.3471 18.9979 21.7098 17.5795 21.7874 15.9784C21.8674 14.5999 21.8524 13.2315 21.8524 11.8506ZM11.8508 16.9816C9.01146 16.9816 6.71996 14.69 6.71996 11.8506C6.71996 9.01117 9.01146 6.71962 11.8508 6.71962C14.6902 6.71962 16.9817 9.01117 16.9817 11.8506C16.9817 14.69 14.6902 16.9816 11.8508 16.9816ZM17.1918 7.70779C16.5289 7.70779 15.9935 7.17242 15.9935 6.50948C15.9935 5.84653 16.5289 5.31117 17.1918 5.31117C17.8548 5.31117 18.3901 5.84653 18.3901 6.50948C18.3903 6.6669 18.3595 6.82281 18.2993 6.96828C18.2392 7.11376 18.1509 7.24594 18.0396 7.35725C17.9283 7.46856 17.7961 7.55682 17.6506 7.61697C17.5052 7.67712 17.3493 7.70798 17.1918 7.70779Z" fill="#E5E5E5"/>
</svg>
