<svg width="24" height="24" viewBox="0 0 24 24" fill="none" xmlns="http://www.w3.org/2000/svg">
<path d="M22 5.9006C21.2645 6.21303 20.4641 6.43788 19.6397 6.52545C20.4956 6.02471 21.1366 5.23362 21.4424 4.3006C20.6392 4.77113 19.7593 5.10105 18.8417 5.27575C18.4582 4.87202 17.9944 4.5504 17.4792 4.33091C16.9639 4.11143 16.4083 3.99879 15.8469 4.00001C13.5755 4.00001 11.7488 5.81303 11.7488 8.03788C11.7488 8.3503 11.7873 8.66273 11.8498 8.96332C8.44874 8.78817 5.41546 7.18817 3.39887 4.73847C3.03141 5.35649 2.83885 6.06019 2.84124 6.77634C2.84124 8.17752 3.56472 9.41302 4.66795 10.1397C4.0178 10.1144 3.38287 9.93846 2.81481 9.62604V9.67575C2.81481 11.6379 4.22329 13.2639 6.10047 13.6379C5.74801 13.728 5.38543 13.7742 5.02127 13.7752C4.75448 13.7752 4.5021 13.7491 4.24733 13.7136C4.76649 15.3136 6.27833 16.4757 8.0786 16.5136C6.67011 17.6 4.9059 18.2391 2.99027 18.2391C2.64656 18.2391 2.32929 18.2272 2 18.1894C3.81709 19.3373 5.97308 20 8.29492 20C15.8325 20 19.957 13.8509 19.957 8.51362C19.957 8.33847 19.957 8.16332 19.945 7.98817C20.7429 7.41303 21.4424 6.7006 22 5.9006Z" fill="#E5E5E5"/>
</svg>
