<svg width="56" height="56" viewBox="0 0 56 56" fill="none" xmlns="http://www.w3.org/2000/svg">
<path d="M4 6H13.7777L14.8963 10H52L44.4758 32H19.9678L18.9416 36H49.1533V40H13.6874L16.2448 30.022L10.6416 10H4V6ZM12.2097 46C12.2097 44.9391 12.6422 43.9217 13.412 43.1716C14.1818 42.4214 15.2259 42 16.3145 42C17.4032 42 18.4473 42.4214 19.2171 43.1716C19.9869 43.9217 20.4194 44.9391 20.4194 46C20.4194 47.0609 19.9869 48.0783 19.2171 48.8284C18.4473 49.5786 17.4032 50 16.3145 50C15.2259 50 14.1818 49.5786 13.412 48.8284C12.6422 48.0783 12.2097 47.0609 12.2097 46ZM40.9436 46C40.9436 44.9391 41.3761 43.9217 42.1459 43.1716C42.9157 42.4214 43.9598 42 45.0484 42C46.1371 42 47.1812 42.4214 47.951 43.1716C48.7208 43.9217 49.1533 44.9391 49.1533 46C49.1533 47.0609 48.7208 48.0783 47.951 48.8284C47.1812 49.5786 46.1371 50 45.0484 50C43.9598 50 42.9157 49.5786 42.1459 48.8284C41.3761 48.0783 40.9436 47.0609 40.9436 46Z" fill="#4285F4"/>
</svg>
